<?xml version="1.0" standalone="no"?><!DOCTYPE svg PUBLIC "-//W3C//DTD SVG 1.1//EN" "http://www.w3.org/Graphics/SVG/1.1/DTD/svg11.dtd"><svg t="1745247671856" class="icon" viewBox="0 0 1024 1024" version="1.1" xmlns="http://www.w3.org/2000/svg" p-id="20981" xmlns:xlink="http://www.w3.org/1999/xlink" width="200" height="200"><path d="M870.599222 165.813828H634.598025v61.299012h193.091888l100.223885 275.845556H665.247531v30.649506a153.247531 153.247531 0 0 1-306.495062 0v-30.649506H96.086202l100.223885-275.845556H389.401975v-61.299012H153.400778L21.607902 528.397486v495.602514h980.784196V528.397486z m70.493864 796.88716H82.906914v-398.44358h216.692008a214.546543 214.546543 0 0 0 424.802156 0H941.093086z" fill="#54C3F1" p-id="20982"></path><path d="M481.350494 117.387609v416.220293h61.299012V117.387609l39.537863 39.537862 43.522299-43.215803L512 0l-113.709668 113.709668 43.522299 43.215803L481.350494 117.387609z" fill="#54C3F1" p-id="20983"></path></svg>