<?xml version="1.0" standalone="no"?><!DOCTYPE svg PUBLIC "-//W3C//DTD SVG 1.1//EN" "http://www.w3.org/Graphics/SVG/1.1/DTD/svg11.dtd"><svg t="1745246018480" class="icon" viewBox="0 0 1024 1024" version="1.1" xmlns="http://www.w3.org/2000/svg" p-id="7825" xmlns:xlink="http://www.w3.org/1999/xlink" width="200" height="200"><path d="M512 0c282.770286 0 512 229.229714 512 512s-229.229714 512-512 512S0 794.770286 0 512 229.229714 0 512 0z m0 347.428571a146.285714 146.285714 0 0 0-146.102857 138.971429l-0.182857 7.314286v146.285714h-27.428572a27.428571 27.428571 0 0 0-3.730285 54.601143L338.285714 694.857143h347.428572a27.428571 27.428571 0 0 0 3.730285-54.601143l-3.730285-0.256H658.285714v-146.285714a146.285714 146.285714 0 0 0-146.285714-146.285715z m20.004571 70.985143l1.572572 0.365715a4.754286 4.754286 0 0 1 2.889143 3.291428l0.073143 1.462857-12.068572 76.434286h64.512c1.865143-0.036571 3.657143 0.987429 4.571429 2.669714 0.548571 1.097143 0.585143 2.304 0.182857 3.401143l-0.914286 1.462857-103.497143 109.238857a5.449143 5.449143 0 0 1-5.888 1.170286 4.754286 4.754286 0 0 1-2.925714-3.291428l-0.073143-1.462858 12.068572-76.434285h-64.475429a5.12 5.12 0 0 1-4.571429-2.669715 4.242286 4.242286 0 0 1-0.219428-3.364571l0.914286-1.462857 103.533714-109.275429a5.485714 5.485714 0 0 1 4.315428-1.536z m185.856-43.556571a18.285714 18.285714 0 0 0-21.979428-8.082286l-2.998857 1.389714-15.835429 9.142858a18.285714 18.285714 0 0 0 15.286857 33.060571l2.998857-1.389714 15.835429-9.142857a18.285714 18.285714 0 0 0 6.692571-24.978286z m-386.742857-6.692572a18.285714 18.285714 0 0 0-20.992 29.769143l2.706286 1.901715 15.835429 9.142857a18.285714 18.285714 0 0 0 20.992-29.769143l-2.706286-1.901714-15.835429-9.142858z m299.739429-80.310857a18.285714 18.285714 0 0 0-23.076572 3.986286l-1.901714 2.706286-9.142857 15.835428a18.285714 18.285714 0 0 0 29.769143 20.992l1.901714-2.706285 9.142857-15.835429a18.285714 18.285714 0 0 0-6.692571-24.978286z m-212.736 6.692572a18.285714 18.285714 0 0 0-33.060572 15.286857l1.389715 2.998857 9.142857 15.835429a18.285714 18.285714 0 0 0 33.060571-15.286858l-1.389714-2.998857-9.142857-15.835428zM512 256a18.285714 18.285714 0 0 0-17.993143 14.994286l-0.292571 3.291428V292.571429a18.285714 18.285714 0 0 0 36.278857 3.291428L530.285714 292.571429v-18.285715A18.285714 18.285714 0 0 0 512 256z" fill="#F94F17" p-id="7826"></path></svg>