<?xml version="1.0" standalone="no"?><!DOCTYPE svg PUBLIC "-//W3C//DTD SVG 1.1//EN" "http://www.w3.org/Graphics/SVG/1.1/DTD/svg11.dtd"><svg t="1745245945869" class="icon" viewBox="0 0 1024 1024" version="1.1" xmlns="http://www.w3.org/2000/svg" p-id="4237" xmlns:xlink="http://www.w3.org/1999/xlink" width="200" height="200"><path d="M583.543467 248.661333a35.396267 35.396267 0 0 0-39.594667-39.594666h-319.829333a35.396267 35.396267 0 0 0-39.6288 39.594666 35.566933 35.566933 0 0 0 39.594666 39.799467h319.829334a35.396267 35.396267 0 0 0 39.6288-39.799467z m227.328-248.6272h40.482133L915.285333 0c-1.536 61.269333-1.536 104.482133 0 129.672533V482.304a39.594667 39.594667 0 0 1-78.848 5.3248V79.223467c-25.088 1.024-42.666667 1.024-52.804266 0H138.103467l-7.645867-0.034134H95.1296l-15.906133 0.034134c0.9216 26.077867 0.9216 43.690667 0 52.804266v803.259734c25.736533-0.955733 43.349333-0.955733 52.804266 0H482.304a39.594667 39.594667 0 0 1 5.3248 78.848H0c1.467733-63.351467 1.467733-106.5984 0-129.6384V0c63.419733 1.467733 106.666667 1.467733 129.672533 0z m-77.312 586.820267a169.984 169.984 0 0 1 233.642666-6.417067l6.792534 6.417067a170.359467 170.359467 0 0 1 1.092266 240.059733l-146.705066 145.6128a137.898667 137.898667 0 0 1-194.935467 0l-145.442133-145.237333a170.1888 170.1888 0 0 1 0-240.4352 170.1888 170.1888 0 0 1 240.2304 0l2.730666 2.730667z m-1.706667 49.186133a35.396267 35.396267 0 0 0-39.594667 39.594667l-0.034133 46.4896h-46.4896a35.566933 35.566933 0 0 0-39.594667 39.799467 35.396267 35.396267 0 0 0 39.594667 39.594666h46.4896v46.353067a35.566933 35.566933 0 0 0 39.6288 39.765333 35.566933 35.566933 0 0 0 39.799467-39.765333l-0.034134-46.353067h46.318934a35.566933 35.566933 0 0 0 39.799466-39.594666 35.566933 35.566933 0 0 0-39.799466-39.799467h-46.318934v-46.455467a35.566933 35.566933 0 0 0-39.765333-39.6288z m-335.530667-275.319466a35.566933 35.566933 0 0 1 39.765334 39.799466 35.566933 35.566933 0 0 1-39.765334 39.594667H224.119467a35.396267 35.396267 0 0 1-39.6288-39.594667 35.566933 35.566933 0 0 1 39.594666-39.799466z" fill="#6CC34C" p-id="4238"></path></svg>