<?xml version="1.0" standalone="no"?><!DOCTYPE svg PUBLIC "-//W3C//DTD SVG 1.1//EN" "http://www.w3.org/Graphics/SVG/1.1/DTD/svg11.dtd"><svg t="1745247508713" class="icon" viewBox="0 0 1024 1024" version="1.1" xmlns="http://www.w3.org/2000/svg" p-id="14832" xmlns:xlink="http://www.w3.org/1999/xlink" width="200" height="200"><path d="M918.5024 839.11168c0 43.84768-35.54304 79.39072-79.40096 79.39072H184.89344c-43.84768 0-79.39584-35.53792-79.39584-79.39072V184.89344c0-43.84768 35.54304-79.39584 79.39584-79.39584h654.208c43.84768 0 79.39584 35.54304 79.39584 79.39584v654.21824h0.00512z" fill="#5ADBA3" p-id="14833"></path><path d="M454.50752 555.45344c0 31.74912 25.73824 57.49248 57.49248 57.49248s57.49248-25.74336 57.49248-57.49248c0.01024-31.75936-25.71776-57.50784-57.472-57.51808-31.75424-0.01536-57.50272 25.71264-57.51808 57.472a0.11264 0.11264 0 0 1 0.00512 0.04608z" fill="#FFFFFF" p-id="14834"></path><path d="M741.98016 363.79648h-74.66496a38.32832 38.32832 0 0 1-34.82112-22.31808l-14.73024-32.0256a38.33344 38.33344 0 0 0-34.82624-22.31296H446.40256a38.30784 38.30784 0 0 0-34.82624 22.31296l-14.72512 32.0256a38.33856 38.33856 0 0 1-34.82624 22.31808H282.01984c-21.08416 0-38.33344 17.24928-38.33344 38.33344v306.64192c0 21.08416 17.24928 38.32832 38.33344 38.32832h459.96032c21.08416 0 38.33344-17.24416 38.33344-38.32832V402.12992c0-21.08416-17.24928-38.33344-38.33344-38.33344zM377.84576 459.6224h-57.4976a19.16416 19.16416 0 0 1 0-38.32832h57.4976a19.16416 19.16416 0 0 1 0 38.32832zM512 651.27424c-52.8384 0-95.82592-42.98752-95.82592-95.8208 0-52.84352 42.98752-95.8208 95.82592-95.8208s95.83104 42.97728 95.83104 95.8208c0 52.83328-42.99264 95.8208-95.83104 95.8208z" fill="#FFFFFF" p-id="14835"></path></svg>