<?xml version="1.0" standalone="no"?><!DOCTYPE svg PUBLIC "-//W3C//DTD SVG 1.1//EN" "http://www.w3.org/Graphics/SVG/1.1/DTD/svg11.dtd"><svg t="1745247559773" class="icon" viewBox="0 0 1024 1024" version="1.1" xmlns="http://www.w3.org/2000/svg" p-id="18148" xmlns:xlink="http://www.w3.org/1999/xlink" width="200" height="200"><path d="M659.34222222 338.83022222a104.22044445 104.22044445 0 0 0-147.00088889 0.79644445l-25.82755555 26.16888888-22.64177778-28.89955555a103.99288889 103.99288889 0 0 0-163.72622222 128.11377778l119.23911111 152.46222222c10.80888889 14.10844445 21.95911111 28.78577778 50.97244444 31.06133333s41.41511111-12.17422222 53.81688889-25.03111111l135.96444445-137.67111111a103.99288889 103.99288889 0 0 0-0.79644445-147.00088889z" fill="#ef6ea0" p-id="18149"></path><path d="M779.15022222 765.72444445a436.224 436.224 0 0 0 138.24-293.66044445c13.88088889-240.18488889-170.21155555-446.91911111-410.39644444-460.8S60.18844445 181.47555555 46.30755555 421.54666667s170.09777778 446.91911111 410.28266667 460.8a429.39733333 429.39733333 0 0 0 73.61422223-1.93422222l-6.37155556-57.79911112a373.41866667 373.41866667 0 0 1-63.82933334 1.70666667c-208.21333333-12.06044445-367.72977778-191.26044445-355.66933333-399.36s191.26044445-367.616 399.36-355.66933333 367.616 191.26044445 355.55555556 399.36a377.28711111 377.28711111 0 0 1-118.784 253.61066666 343.95022222 343.95022222 0 0 1-27.53422223 23.77955556c-3.29955555 2.61688889-6.71288889 5.12-10.12622222 7.62311111s-5.12 3.41333333-7.73688888 5.12l39.13955555 43.80444445 190.00888889 213.4471111 43.46311111-38.68444444z" fill="#ef6ea0" p-id="18150"></path></svg>